<svg width="30" height="30" viewBox="0 0 30 30" fill="none" xmlns="http://www.w3.org/2000/svg">
<g clip-path="url(#clip0)">
<path d="M3.75 12.1875C3.75 12.7053 4.16973 13.125 4.6875 13.125H21.5625C22.0803 13.125 22.5 12.7053 22.5 12.1875C22.5 11.6697 22.0803 11.25 21.5625 11.25H4.6875C4.16973 11.25 3.75 11.6697 3.75 12.1875ZM14.0625 23.4375C14.0625 23.9553 14.4822 24.375 15 24.375H19.6875C20.2053 24.375 20.625 23.9553 20.625 23.4375C20.625 22.9197 20.2053 22.5 19.6875 22.5H15C14.4822 22.5 14.0625 22.9197 14.0625 23.4375ZM14.0625 19.6875C14.0625 20.2053 14.4822 20.625 15 20.625H21.5625C22.0803 20.625 22.5 20.2053 22.5 19.6875C22.5 19.1697 22.0803 18.75 21.5625 18.75H15C14.4822 18.75 14.0625 19.1697 14.0625 19.6875ZM14.0625 15.9375C14.0625 16.4553 14.4822 16.875 15 16.875H21.5625C22.0803 16.875 22.5 16.4553 22.5 15.9375C22.5 15.4197 22.0803 15 21.5625 15H15C14.4822 15 14.0625 15.4197 14.0625 15.9375ZM3.75 23.375C3.75 23.9273 4.19772 24.375 4.75 24.375H11.1875C11.7398 24.375 12.1875 23.9273 12.1875 23.375V16C12.1875 15.4477 11.7398 15 11.1875 15H4.75C4.19772 15 3.75 15.4477 3.75 16V23.375ZM27.25 9.375C26.6977 9.375 26.25 8.92728 26.25 8.375V6.625C26.25 6.07272 25.8023 5.625 25.25 5.625H1C0.447715 5.625 0 6.07272 0 6.625V26.25C0 26.25 0 30 3.75 30H27.1772C27.1841 30 27.1903 30 27.1972 29.9997C27.3768 29.9918 30 29.8154 30 26.25V10.375C30 9.82271 29.5523 9.375 29 9.375H27.25ZM3.75 28.125C1.875 28.125 1.875 26.25 1.875 26.25V8.5C1.875 7.94772 2.32272 7.5 2.875 7.5H23.375C23.9273 7.5 24.375 7.94772 24.375 8.5V26.25C24.375 27.0353 23.7692 28.125 22.984 28.125H3.75Z" fill="#878787"/>
<mask id="mask0" mask-type="alpha" maskUnits="userSpaceOnUse" x="3" y="11" width="20" height="15">
<rect x="3" y="11" width="20" height="15" fill="#C4C4C4"/>
</mask>
<g mask="url(#mask0)">
<path d="M3.75 13.125H22.5V11.25H3.75V13.125ZM14.0625 24.375H20.625V22.5H14.0625V24.375ZM14.0625 20.625H22.5V18.75H14.0625V20.625ZM14.0625 16.875H22.5V15H14.0625V16.875ZM3.75 24.375H12.1875V15H3.75V24.375ZM26.25 9.375V5.625H0V26.25C0 26.25 0 30 3.75 30H27.1875C27.1875 30 30 29.9419 30 26.25V9.375H26.25ZM3.75 28.125C1.875 28.125 1.875 26.25 1.875 26.25V7.5H24.375V26.25C24.375 27.1134 24.6413 27.7106 25.0088 28.125H3.75Z" fill="#1599DE"/>
</g>
</g>
<defs>
<clipPath id="clip0">
<rect width="30" height="30" fill="white"/>
</clipPath>
</defs>
</svg>
